<svg width="512" height="512" xmlns="http://www.w3.org/2000/svg">

 <g>
  <title>background</title>
  <rect fill="none" id="canvas_background" height="402" width="582" y="-1" x="-1"/>
 </g>
 <g>
  <title>Layer 1</title>
  <circle id="svg_3" r="256" fill="#b7efcd" cy="256" cx="256"/>
  <path id="svg_4" fill="#b7efcd" d="m256,469.333862c-117.631012,0 -213.33334,-95.702393 -213.33334,-213.333344c0,-117.631454 95.702312,-213.333309 213.33334,-213.333309c117.6362,0 213.333344,95.701855 213.333344,213.333309c0,117.630951 -95.697144,213.333344 -213.333344,213.333344z"/>
  <path id="svg_5" opacity="0.3" d="m264,144c-66.274216,0 -120,53.725327 -120,120c0,66.274139 53.725784,120 120,120c66.274048,0 120,-53.725861 120,-120c0,-66.274673 -53.725952,-120 -120,-120zm0,210l0,-180c49.623932,0 90,40.376007 90,90s-40.376068,90 -90,90z"/>
  <path id="svg_6" fill="#363636" d="m256,136c-66.274216,0 -120,53.725327 -120,120c0,66.274139 53.725784,120 120,120c66.274048,0 120,-53.725861 120,-120c0,-66.274673 -53.725952,-120 -120,-120zm0,210l0,-180c49.623932,0 90,40.376007 90,90s-40.376068,90 -90,90z"/>
 </g>
</svg>